:FULLY-SPECIFIED
:FORCE-ALL-JOINTS-BE-3DOF
:DEGREES
238
root 5.63416 15.6805 -25.8492 12.5771 19.695 -7.59532
lfemur -45.6752 40.2969 -2.16974
ltibia 61.8006 -0 0
lfoot -15.8153 6.81178 -0.0164902
ltoes -16.6586 0 0
rfemur -27.285 -21.2463 5.67134
rtibia 46.57 -0 0
rfoot -32.1276 3.59673 -1.00792
rtoes 59.9745 -0 0
lowerback 1.75561 -2.2911 2.46297
upperback -0.699548 -2.97145 2.62925
thorax -1.68515 -1.49217 1.39526
lowerneck -14.0387 -1.48938 0.583902
upperneck 1.1529 -2.0697 0.292797
head 2.7892 -1.01474 -0.130452
lclavicle 4.85604e-15 -1.09048e-14 0
lhumerus -63.7152 -35.1213 129.568
lradius 69.2496 -0 0
lwrist 21.9582 0 0
lhand 14.0283 17.9347 -0.0767372
lfingers 7.12502 0 0
lthumb 42.9594 48.0337 0.00676133
rclavicle 4.85604e-15 -1.09048e-14 0
rhumerus -41.1371 -1.46169 -79.3507
rradius 112.161 -0 0
rwrist -28.4673 0 0
rhand 50.8512 -29.5181 -2.63716
rfingers 7.12502 0 0
rthumb 71.6451 -38.4243 3.53957
239
root 5.73532 15.7142 -25.8391 12.2934 19.3124 -7.55547
lfemur -45.0999 39.852 -2.30291
ltibia 61.1437 -0 0
lfoot -15.2009 6.88415 -0.050575
ltoes -17.2117 0 0
rfemur -26.5325 -20.813 5.66882
rtibia 45.4028 -0 0
rfoot -31.6124 3.40228 -0.976177
rtoes 59.0714 -0 0
lowerback 1.74321 -2.23505 2.44613
upperback -0.681954 -2.89691 2.66322
thorax -1.65829 -1.45362 1.43938
lowerneck -13.7203 -1.44939 0.513775
upperneck 1.09464 -2.00502 0.262173
head 2.71358 -0.984377 -0.124581
lclavicle 2.81613e-15 -9.93923e-15 0
lhumerus -62.1369 -35.4806 128.525
lradius 68.1002 -0 0
lwrist 21.3563 0 0
lhand 13.4353 17.3702 -0.108518
lfingers 7.12502 0 0
lthumb 41.8103 47.0248 0.00307671
rclavicle 2.81613e-15 -9.93923e-15 0
rhumerus -40.6005 -1.30377 -78.6594
rradius 111.71 -0 0
rwrist -28.1393 0 0
rhand 51.0696 -28.6162 -3.00148
rfingers 7.12502 0 0
rthumb 70.9153 -38.7337 4.57088
240
root 5.83647 15.748 -25.8289 11.9156 18.7162 -7.46729
lfemur -44.1538 39.1636 -2.38392
ltibia 60.1401 -0 0
lfoot -14.4378 6.94277 -0.0899366
ltoes -17.8709 0 0
rfemur -25.6143 -20.2933 5.65542
rtibia 43.8465 -0 0
rfoot -31.0082 3.23537 -0.914375
rtoes 57.9559 -0 0
lowerback 1.72209 -2.16132 2.41947
upperback -0.656533 -2.79923 2.67517
thorax -1.61922 -1.40342 1.46609
lowerneck -13.2957 -1.38205 0.441501
upperneck 1.02075 -1.90364 0.230522
head 2.6146 -0.93585 -0.116367
lclavicle 7.76224e-16 -8.9737e-15 0
lhumerus -60.0235 -36.0077 126.999
lradius 66.5062 -0 0
lwrist 20.5779 0 0
lhand 12.7457 16.6718 -0.142391
lfingers 7.12502 0 0
lthumb 40.3539 45.6753 -0.00130848
rclavicle 7.76224e-16 -8.9737e-15 0
rhumerus -39.779 -1.10765 -77.5893
rradius 111.08 -0 0
rwrist -27.8308 0 0
rhand 51.2052 -27.5653 -3.35201
rfingers 7.12502 0 0
rthumb 69.9295 -38.8397 5.66586
241
root 5.93763 15.7817 -25.8188 11.4755 17.9811 -7.34291
lfemur -42.9342 38.294 -2.43192
ltibia 58.8663 -0 0
lfoot -13.5796 6.9844 -0.133054
ltoes -18.5805 0 0
rfemur -24.5893 -19.7128 5.63353
rtibia 42.017 -0 0
rfoot -30.3342 3.08812 -0.83284
rtoes 56.6661 -0 0
lowerback 1.69522 -2.0763 2.38495
upperback -0.625737 -2.6868 2.67021
thorax -1.5719 -1.34579 1.47967
lowerneck -12.7996 -1.298 0.368389
upperneck 0.937224 -1.77992 0.199233
head 2.50038 -0.876238 -0.106435
lclavicle -1.26369e-15 -8.00818e-15 0
lhumerus -57.5154 -36.6731 124.993
lradius 64.5607 -0 0
lwrist 19.6824 0 0
lhand 11.9979 15.8867 -0.177174
lfingers 7.12502 0 0
lthumb 38.6812 44.0778 -0.00615557
rclavicle -1.26369e-15 -8.00818e-15 0
rhumerus -38.7564 -0.882479 -76.2118
rradius 110.274 -0 0
rwrist -27.5252 0 0
rhand 51.2657 -26.4206 -3.69114
rfingers 7.12502 0 0
rthumb 68.7226 -38.787 6.80234
242
root 6.03879 15.8155 -25.8087 11.0035 17.1798 -7.19457
lfemur -41.5425 37.3072 -2.46546
ltibia 57.4051 -0 0
lfoot -12.6775 7.00707 -0.178432
ltoes -19.2899 0 0
rfemur -23.515 -19.0966 5.60604
rtibia 40.0336 -0 0
rfoot -29.6102 2.95249 -0.741388
rtoes 55.2444 -0 0
lowerback 1.66551 -1.98612 2.34468
upperback -0.591922 -2.56767 2.6537
thorax -1.52016 -1.28478 1.48454
lowerneck -12.2655 -1.20735 0.295472
upperneck 0.849661 -1.64748 0.169512
head 2.37866 -0.812269 -0.0953797
lclavicle -3.3036e-15 -7.04265e-15 0
lhumerus -54.765 -37.4389 122.519
lradius 62.3683 -0 0
lwrist 18.7275 0 0
lhand 11.2275 15.0599 -0.211861
lfingers 7.12502 0 0
lthumb 36.8857 42.329 -0.0112353
rclavicle -3.3036e-15 -7.04265e-15 0
rhumerus -37.6175 -0.638348 -74.6072
rradius 109.3 -0 0
rwrist -27.2074 0 0
rhand 51.2596 -25.234 -4.02211
rfingers 7.12502 0 0
rthumb 67.3347 -38.6229 7.95894
243
root 6.13994 15.8492 -25.7986 10.5272 16.3813 -7.03425
lfemur -40.0831 36.2685 -2.50151
ltibia 55.8478 -0 0
lfoot -11.7782 7.01039 -0.224627
ltoes -19.955 0 0
rfemur -22.4463 -18.4694 5.57649
rtibia 38.0176 -0 0
rfoot -28.8573 2.82086 -0.649153
rtoes 53.7393 -0 0
lowerback 1.63584 -1.89647 2.30087
upperback -0.557283 -2.44928 2.63109
thorax -1.46768 -1.22414 1.48519
lowerneck -11.7249 -1.11938 0.223488
upperneck 0.763113 -1.51882 0.142374
head 2.25661 -0.750104 -0.0837421
lclavicle -5.3435e-15 -6.07713e-15 0
lhumerus -51.9344 -38.2536 119.619
lradius 60.0494 -0 0
lwrist 17.7679 0 0
lhand 10.4673 14.2336 -0.245667
lfingers 7.12502 0 0
lthumb 35.0616 40.5289 -0.0163382
rclavicle -5.3435e-15 -6.07713e-15 0
rhumerus -36.448 -0.38655 -72.8718
rradius 108.174 -0 0
rwrist -26.8645 0 0
rhand 51.1974 -24.053 -4.34933
rfingers 7.12502 0 0
rthumb 65.8149 -38.3989 9.1152
244
root 6.2411 15.883 -25.7885 10.072 15.6494 -6.87355
lfemur -38.6619 35.2443 -2.55519
ltibia 54.2958 -0 0
lfoot -10.9236 6.99565 -0.270268
ltoes -20.5386 0 0
rfemur -21.4347 -17.8556 5.54917
rtibia 36.0885 -0 0
rfoot -28.098 2.68632 -0.564488
rtoes 52.2061 -0 0
lowerback 1.60907 -1.81253 2.2559
upperback -0.523805 -2.33846 2.60789
thorax -1.41788 -1.1673 1.48604
lowerneck -11.2072 -1.0424 0.152858
upperneck 0.681989 -1.40506 0.118647
head 2.14076 -0.695251 -0.0719912
lclavicle -7.38341e-15 -5.1116e-15 0
lhumerus -49.19 -39.0524 116.395
lradius 57.7399 -0 0
lwrist 16.8542 0 0
lhand 9.7461 13.4462 -0.278065
lfingers 7.12502 0 0
lthumb 33.3015 38.7786 -0.021287
rclavicle -7.38341e-15 -5.1116e-15 0
rhumerus -35.3329 -0.13941 -71.1222
rradius 106.926 -0 0
rwrist -26.4867 0 0
rhand 51.0926 -22.9198 -4.67862
rfingers 7.12502 0 0
rthumb 64.2251 -38.1714 10.2518
245
root 6.34226 15.9167 -25.7784 9.66015 15.0428 -6.72365
lfemur -37.3852 34.3018 -2.6399
ltibia 52.8594 -0 0
lfoot -10.1503 6.96566 -0.314068
ltoes -21.0103 0 0
rfemur -20.528 -17.2789 5.52913
rtibia 34.3611 -0 0
rfoot -27.3562 2.54261 -0.494942
rtoes 50.707 -0 0
lowerback 1.58804 -1.73906 2.21225
upperback -0.493256 -2.24143 2.58964
thorax -1.374 -1.11736 1.49151
lowerneck -10.7394 -0.98381 0.0836604
upperneck 0.61006 -1.31607 0.0990005
head 2.03696 -0.652596 -0.0605132
lclavicle -9.42332e-15 -4.14608e-15 0
lhumerus -46.6928 -39.7623 113.044
lradius 55.5876 -0 0
lwrist 16.0325 0 0
lhand 9.08911 12.7323 -0.308792
lfingers 7.12502 0 0
lthumb 31.6939 37.1787 -0.0259489
rclavicle -9.42332e-15 -4.14608e-15 0
rhumerus -34.3557 0.0902712 -69.496
rradius 105.61 -0 0
rwrist -26.0676 0 0
rhand 50.9619 -21.8698 -5.01723
rfingers 7.12502 0 0
rthumb 62.6411 -38.003 11.3505
246
root 6.44341 15.9505 -25.7682 9.31206 14.6164 -6.59536
lfemur -36.3575 33.5078 -2.76805
ltibia 51.6555 -0 0
lfoot -9.48977 6.92443 -0.354827
ltoes -21.3447 0 0
rfemur -19.7701 -16.7622 5.52219
rtibia 32.943 -0 0
rfoot -26.6564 2.38383 -0.447305
rtoes 49.3092 -0 0
lowerback 1.5756 -1.6804 2.17247
upperback -0.467208 -2.16388 2.58193
thorax -1.33907 -1.07718 1.50604
lowerneck -10.3464 -0.950339 0.0155981
upperneck 0.550542 -1.26077 0.0839858
head 1.95052 -0.626562 -0.0496099
lclavicle -1.14632e-14 -3.18055e-15 0
lhumerus -44.5929 -40.3168 109.874
lradius 53.7461 -0 0
lwrist 15.3449 0 0
lhand 8.51798 12.123 -0.337833
lfingers 7.12502 0 0
lthumb 30.3218 35.8258 -0.0302412
rclavicle -1.14632e-14 -3.18055e-15 0
rhumerus -33.5981 0.290004 -68.149
rradius 104.306 -0 0
rwrist -25.603 0 0
rhand 50.8259 -20.932 -5.37377
rfingers 7.12502 0 0
rthumb 61.1524 -37.9625 12.3941
247
root 6.54457 15.9842 -25.7581 9.04667 14.4228 -6.49939
lfemur -35.6819 32.9288 -2.9522
ltibia 50.8041 -0 0
lfoot -8.97012 6.87657 -0.391431
ltoes -21.5197 0 0
rfemur -19.2025 -16.3278 5.53488
rtibia 31.9356 -0 0
rfoot -26.0231 2.2038 -0.427721
rtoes 48.0824 -0 0
lowerback 1.57474 -1.64068 2.13911
upperback -0.447087 -2.11123 2.59048
thorax -1.31604 -1.04944 1.5342
lowerneck -10.0513 -0.948453 -0.0520307
upperneck 0.506271 -1.24766 0.0740918
head 1.88634 -0.621384 -0.0395043
lclavicle -1.35031e-14 -2.21503e-15 0
lhumerus -43.0269 -40.6706 107.292
lradius 52.3695 -0 0
lwrist 14.8304 0 0
lhand 8.05163 11.6465 -0.365388
lfingers 7.12502 0 0
lthumb 29.2626 34.8129 -0.0341288
rclavicle -1.35031e-14 -2.21503e-15 0
rhumerus -33.14 0.448324 -67.2488
rradius 103.123 -0 0
rwrist -25.0902 0 0
rhand 50.7082 -20.1293 -5.75795
rfingers 7.12502 0 0
rthumb 59.8595 -38.1253 13.3658
248
root 6.64573 16.018 -25.748 8.88279 14.5166 -6.44654
lfemur -35.462 32.631 -3.2067
ltibia 50.4259 -0 0
lfoot -8.61758 6.82658 -0.422841
ltoes -21.5136 0 0
rfemur -18.8652 -15.9964 5.57437
rtibia 31.4373 -0 0
rfoot -25.4794 1.99521 -0.441884
rtoes 47.0959 -0 0
lowerback 1.58862 -1.62402 2.11467
upperback -0.434253 -2.08889 2.62131
thorax -1.30788 -1.03684 1.58092
lowerneck -9.87697 -0.984968 -0.12037
upperneck 0.47997 -1.28566 0.0698199
head 1.8492 -0.641505 -0.0303548
lclavicle -1.55431e-14 -1.2495e-15 0
lhumerus -42.1223 -40.8032 105.755
lradius 51.6078 -0 0
lwrist 14.5267 0 0
lhand 7.7074 11.3298 -0.391801
lfingers 7.12502 0 0
lthumb 28.59 34.2298 -0.0376122
rclavicle -1.55431e-14 -1.2495e-15 0
rhumerus -33.0613 0.555114 -66.9656
rradius 102.191 -0 0
rwrist -24.5256 0 0
rhand 50.6339 -19.4796 -6.18014
rfingers 7.12502 0 0
rthumb 58.8683 -38.5729 14.2481
249
root 6.74688 16.0517 -25.7379 8.84067 14.9583 -6.44819
lfemur -35.8047 32.6805 -3.54983
ltibia 50.6388 -0 0
lfoot -8.45932 6.77774 -0.448075
ltoes -21.3016 0 0
rfemur -18.7991 -15.7875 5.64828
rtibia 31.5501 -0 0
rfoot -25.0453 1.74836 -0.495296
rtoes 46.4147 -0 0
lowerback 1.62074 -1.63487 2.10146
upperback -0.430114 -2.10269 2.68088
thorax -1.31775 -1.04227 1.65172
lowerneck -9.84676 -1.06784 -0.191045
upperneck 0.474587 -1.38514 0.0717751
head 1.84416 -0.692093 -0.0222773
lclavicle -1.7583e-14 -2.83979e-16 0
lhumerus -42.0061 -40.7021 105.676
lradius 51.6061 -0 0
lwrist 14.4732 0 0
lhand 7.50258 11.2003 -0.417481
lfingers 7.12502 0 0
lthumb 28.3775 34.1663 -0.0407052
rclavicle -1.7583e-14 -2.83979e-16 0
rhumerus -33.4447 0.601381 -67.4606
rradius 101.64 -0 0
rwrist -23.9022 0 0
rhand 50.6276 -18.9983 -6.65092
rfingers 7.12502 0 0
rthumb 58.2823 -39.3899 15.0209
250
root 6.84804 16.0855 -25.7278 8.94405 15.8202 -6.5168
lfemur -36.8241 33.1445 -4.00653
ltibia 51.5538 -0 0
lfoot -8.52678 6.731 -0.466184
ltoes -20.8505 0 0
rfemur -19.0491 -15.7194 5.76451
rtibia 32.3862 -0 0
rfoot -24.7364 1.44973 -0.5936
rtoes 46.0964 -0 0
lowerback 1.675 -1.67833 2.10146
upperback -0.436266 -2.15936 2.77638
thorax -1.34918 -1.06907 1.75305
lowerneck -9.9866 -1.20711 -0.266205
upperneck 0.493734 -1.55922 0.0807726
head 1.87694 -0.779686 -0.0153753
lclavicle -1.96229e-14 6.81546e-16 0
lhumerus -42.816 -40.3309 107.318
lradius 52.5039 -0 0
lwrist 14.7141 0 0
lhand 7.45643 11.2887 -0.442783
lfingers 7.12502 0 0
lthumb 28.7035 34.7161 -0.043404
rclavicle -1.96229e-14 6.81546e-16 0
rhumerus -34.3779 0.578717 -68.8699
rradius 101.576 -0 0
rwrist -23.2053 0 0
rhand 50.7095 -18.7006 -7.1804
rfingers 7.12502 0 0
rthumb 58.1934 -40.6609 15.6595
